<svg width="113" height="44" viewBox="0 0 113 44" fill="none" xmlns="http://www.w3.org/2000/svg">
<path d="M79.9694 28.9614C79.023 30.6288 77.9865 31.5752 77.0402 31.5752C72.5337 31.5752 71.4972 21.7511 71.4972 16.5236V10.3497C71.4972 9.67373 70.9565 9.08789 70.2354 9.08789H55.2739V11.8368C55.2739 12.4227 55.7246 12.8733 56.3104 12.8733H67.6667C67.6667 12.8733 67.6667 16.2982 67.6667 16.5236C67.6667 23.5537 69.2891 35.3606 76.9951 35.3606C78.8878 35.3606 80.6454 34.3241 82.1325 32.4314C82.448 32.0258 82.4029 31.44 82.0424 31.0795L79.9694 28.9614Z" fill="black"/>
<path d="M73.4802 20.9394L78.4824 25.9416C79.0682 26.5275 80.0146 26.5275 80.6004 25.9416L82.1326 24.4094L76.0489 18.3708L79.0682 15.3514C79.6541 14.7656 79.6541 13.8192 79.0682 13.2334L77.536 11.7012L73.4802 15.757L72.0381 17.1991C71.4072 17.83 71.4072 18.8214 72.0381 19.4523L73.4802 20.9394Z" fill="black"/>
<path d="M111.92 15.6211L108.766 10.1683C108.405 9.53735 107.729 9.13176 106.963 9.13176H104.349C104.169 9.13176 104.079 9.31202 104.169 9.44722L105.836 12.3314H98.4458V8.23047H94.435V12.3314H87.2698V14.9C87.2698 15.4859 87.7204 15.9365 88.3062 15.9365H94.435V20.8486H85.1968V23.4173C85.1968 24.0031 85.6474 24.4538 86.2333 24.4538H94.435V35.3594H98.4458V24.4538H107.233L107.143 27.383C107.098 28.2843 106.377 28.9602 105.476 28.9602H101.51V31.5289C101.51 32.1148 101.961 32.5654 102.547 32.5654H106.467C108.856 32.5654 110.839 30.6727 110.884 28.2843L111.109 22.1104C111.154 21.3894 110.568 20.8035 109.847 20.8035H106.783L107.008 14.3142L107.324 14.8099C107.684 15.4408 108.36 15.8464 109.126 15.8464H111.74C111.92 15.9365 112.01 15.7563 111.92 15.6211ZM102.997 20.8486H98.4458V15.9365H103.178L102.997 20.8486Z" fill="black"/>
<path d="M24.1791 22.6065C24.2241 22.5615 24.2692 22.5164 24.2692 22.5164C24.3593 22.4263 24.4044 22.3812 24.4945 22.2911L24.6297 22.1559L25.0804 21.7052L25.6662 21.1194L26.207 20.6237L26.7027 20.128L27.1984 19.6323L27.6491 19.1816L28.28 18.5507C28.4152 18.4155 28.5504 18.3254 28.6405 18.1902C28.8658 17.9649 29.1362 17.7846 29.3615 17.5593C29.5868 17.379 29.8122 17.1988 30.0826 17.0185C30.398 16.7932 30.7585 16.5679 31.119 16.3425C31.4796 16.1172 31.8401 15.937 32.2006 15.7567C32.5611 15.5764 32.8766 15.4412 33.2371 15.3061C33.4173 15.2159 33.6427 15.1709 33.8229 15.0807C33.9131 15.0357 34.0482 14.9906 34.1384 14.9906C33.2371 11.3854 31.5246 8.05063 29.2714 5.25662C28.8207 4.71584 28.1448 4.40039 27.4237 4.40039H8.63174C8.27122 4.40039 8.13603 4.85104 8.40642 5.0313C14.9859 9.6279 20.3035 15.6666 24.1791 22.6065C24.1791 22.6065 24.1791 22.6516 24.1791 22.6065Z" fill="#00D6B9"/>
<path d="M16.7433 39.1444C26.4322 39.1444 34.9043 33.7817 39.3207 25.8954C39.4559 25.625 39.6361 25.3546 39.7713 25.0391C39.546 25.4898 39.3207 25.8954 39.0503 26.2559C38.9602 26.3911 38.87 26.5263 38.7348 26.6615C38.5996 26.8417 38.4645 26.9769 38.3293 27.1572C38.2391 27.2924 38.1039 27.3825 38.0138 27.5177C37.7885 27.743 37.5632 27.9683 37.2928 28.1937C37.1576 28.3289 37.0224 28.419 36.8872 28.5542C36.7069 28.6894 36.5717 28.8246 36.3915 28.9147C36.3013 29.0048 36.1662 29.0499 36.076 29.14C35.9408 29.2302 35.8507 29.2752 35.7155 29.3653C35.4902 29.5005 35.2198 29.6357 34.9494 29.7259C34.7241 29.816 34.4988 29.9061 34.2734 29.9963C34.0481 30.0864 33.7777 30.1765 33.5073 30.2216C33.1468 30.3117 32.7412 30.4018 32.3356 30.4469C32.0653 30.492 31.7498 30.537 31.4794 30.537C31.164 30.537 30.8936 30.5821 30.5781 30.5821C30.2627 30.5821 29.9022 30.537 29.5416 30.537C29.2712 30.492 29.0459 30.492 28.7755 30.4469C28.5502 30.4018 28.3249 30.3568 28.0996 30.3117C27.9644 30.2666 27.8742 30.2666 27.739 30.2216C27.4236 30.1314 27.1081 30.0413 26.7927 29.9512C26.6124 29.9061 26.4772 29.8611 26.297 29.816C26.0717 29.7259 25.8013 29.6808 25.5759 29.5907C25.3957 29.5456 25.1704 29.4555 24.9901 29.4104C24.8098 29.3653 24.6296 29.2752 24.4493 29.2302C24.3141 29.1851 24.1789 29.14 24.0888 29.095C23.9536 29.0499 23.7733 29.0048 23.6382 28.9147C23.548 28.8696 23.4128 28.8246 23.3227 28.7795C23.0974 28.6894 22.9171 28.6443 22.6918 28.5542C22.5566 28.5091 22.4665 28.4641 22.3313 28.419C22.151 28.3739 22.0158 28.2838 21.8356 28.2387C21.6553 28.1486 21.475 28.1035 21.2948 28.0134C21.2047 27.9683 21.0695 27.9233 20.9793 27.8782C20.8441 27.8331 20.7089 27.743 20.5738 27.698C20.4836 27.6529 20.3484 27.6078 20.2583 27.5628C20.1682 27.5177 20.033 27.4726 19.9428 27.4276C19.8527 27.3825 19.7626 27.3374 19.6725 27.2924C19.5823 27.2473 19.4922 27.2022 19.4021 27.1572C19.3119 27.1121 19.2218 27.067 19.1317 27.022C19.0416 26.9769 18.9514 26.9319 18.8613 26.8868C18.7261 26.8417 18.636 26.7967 18.5008 26.7065C18.3656 26.6615 18.2755 26.5713 18.1403 26.5263C18.0051 26.4812 17.8699 26.3911 17.7347 26.346C17.6445 26.3009 17.5094 26.2559 17.4192 26.1658C11.6059 23.2816 6.46849 19.406 2.05215 14.7193C1.82683 14.494 1.46631 14.6292 1.46631 14.9446V31.5285V32.8804C1.46631 33.6465 1.87189 34.4126 2.5028 34.8182C6.55862 37.5671 11.4707 39.1444 16.7433 39.1444Z" fill="#3370FF"/>
<path d="M39.3204 25.8521C39.2754 25.8972 39.2754 25.8972 39.3204 25.8521L39.4105 25.6719C39.3655 25.762 39.3204 25.8071 39.3204 25.8521Z" fill="#133C9A"/>
<path d="M39.7261 25.131L39.7711 25.0859C39.7261 25.0859 39.7261 25.0859 39.7261 25.131Z" fill="#133C9A"/>
<path d="M45.2244 15.7568C43.2415 14.8104 41.0333 14.2246 38.69 14.2246C37.293 14.2246 35.941 14.4049 34.6792 14.7654C34.544 14.8105 34.3638 14.8555 34.2286 14.9006C34.1384 14.9456 34.0032 14.9456 33.9131 14.9907C33.6878 15.0808 33.5075 15.1259 33.3273 15.216C32.9667 15.3512 32.6062 15.5315 32.2908 15.6667C31.9303 15.8469 31.5697 16.0272 31.2092 16.2525C30.8487 16.4778 30.4882 16.7032 30.1727 16.9285C29.9474 17.1088 29.677 17.289 29.4517 17.4693C29.1813 17.6495 28.956 17.8749 28.7307 18.1002C28.5955 18.2354 28.4603 18.3255 28.3701 18.4607L27.7392 19.0916L27.2886 19.5422L26.7929 20.038L26.2972 20.5337L25.7564 21.0294L25.1255 21.7054L24.6748 22.156L24.5396 22.2912C24.4495 22.3813 24.4045 22.4264 24.3143 22.5165C24.2693 22.5616 24.2242 22.6066 24.2242 22.6066C24.1791 22.6517 24.1341 22.6968 24.0439 22.7418C23.9989 22.7869 23.9087 22.877 23.8637 22.9221C22.2413 24.4092 20.4388 25.671 18.501 26.7075C18.6362 26.7526 18.7263 26.7977 18.8615 26.8878C18.9516 26.9329 19.0418 26.9779 19.1319 27.023C19.222 27.0681 19.3121 27.1131 19.4023 27.1582C19.4924 27.2033 19.5825 27.2483 19.6727 27.2934C19.7628 27.3384 19.8529 27.3835 19.943 27.4286C20.0332 27.4736 20.1684 27.5187 20.2585 27.5638C20.3486 27.6088 20.4838 27.6539 20.574 27.699C20.7091 27.744 20.8443 27.8342 20.9795 27.8792C21.0697 27.9243 21.2049 27.9694 21.295 28.0144C21.4752 28.1045 21.6555 28.1496 21.8358 28.2397C22.016 28.2848 22.1512 28.3749 22.3315 28.42C22.4667 28.4651 22.5568 28.5101 22.692 28.5552C22.9173 28.6453 23.0976 28.6904 23.3229 28.7805C23.413 28.8256 23.5482 28.8706 23.6384 28.9157C23.7735 28.9608 23.9538 29.0058 24.089 29.096C24.2242 29.141 24.3594 29.1861 24.4495 29.2312C24.6298 29.2762 24.81 29.3664 24.9903 29.4114C25.1706 29.4565 25.3959 29.5466 25.5761 29.5917C25.8015 29.6818 26.0718 29.7269 26.2972 29.817C26.4774 29.8621 26.6126 29.9071 26.7929 29.9522C27.1083 30.0423 27.4238 30.1325 27.7392 30.2226C27.8744 30.2677 27.9646 30.2677 28.0998 30.3127C28.3251 30.3578 28.5504 30.4028 28.7757 30.4479C29.0461 30.493 29.2714 30.538 29.5418 30.538C29.9024 30.5831 30.2178 30.5831 30.5783 30.5831C30.8938 30.5831 31.2092 30.5831 31.4796 30.538C31.75 30.538 32.0655 30.493 32.3358 30.4479C32.7414 30.4028 33.1019 30.3127 33.5075 30.2226C33.7779 30.1325 34.0032 30.0874 34.2736 29.9973C34.499 29.9071 34.7243 29.817 34.9496 29.7269C35.22 29.5917 35.4453 29.5016 35.7157 29.3664C35.8509 29.3213 35.941 29.2312 36.0762 29.141C36.1663 29.0509 36.3015 29.0058 36.3917 28.9157C36.5719 28.7805 36.7522 28.6904 36.8874 28.5552C37.0226 28.4651 37.1578 28.3299 37.293 28.1947C37.5183 27.9694 37.7887 27.744 38.014 27.5187C38.1041 27.3835 38.2393 27.2934 38.3295 27.1582C38.4646 27.023 38.5998 26.8427 38.735 26.6625C38.8252 26.5273 38.9153 26.3921 39.0505 26.2569C39.3209 25.8964 39.5462 25.4908 39.7715 25.0401L40.0419 24.5444L42.2952 20.038C42.9711 18.4156 44.0076 16.9736 45.2244 15.7568Z" fill="#133C9A"/>
</svg>
